<?xml version="1.0" encoding="UTF-8" standalone="no"?>
<!DOCTYPE svg PUBLIC "-//W3C//DTD SVG 1.1//EN" "http://www.w3.org/Graphics/SVG/1.1/DTD/svg11.dtd">
<svg version="1.1" xmlns="http://www.w3.org/2000/svg" xmlns:xlink="http://www.w3.org/1999/xlink" preserveAspectRatio="xMidYMid meet" viewBox="0 0 1920 1080" width="1920" height="1080"><defs><path d="M1924.07 1080L4.07 1080L4.07 0L1924.07 0L1924.07 1080Z" id="a5lYraFafk"></path><linearGradient id="gradientceUcyueW2" gradientUnits="userSpaceOnUse" x1="1633.69" y1="572.96" x2="-281.28" y2="565.41"><stop style="stop-color: #0045ff;stop-opacity: 1" offset="0%"></stop><stop style="stop-color: #010000;stop-opacity: 1" offset="100%"></stop></linearGradient><path d="M2033.86 752.33L2286.94 1121.87L1780.75 1121.87L1274.59 1121.87L1527.65 752.33L1780.75 382.79L2033.86 752.33Z" id="b26EOqbNE"></path><linearGradient id="gradientagXU2YOJc" gradientUnits="userSpaceOnUse" x1="1780.76" y1="1553.01" x2="1780.76" y2="-1623.31"><stop style="stop-color: #000000;stop-opacity: 0.05" offset="0%"></stop><stop style="stop-color: #010000;stop-opacity: 1" offset="100%"></stop></linearGradient><path d="M1698.63 466L1756.07 382.75L1641.19 382.75L1526.33 382.75L1583.75 466L1641.19 549.25L1698.63 466Z" id="a4bCfVLSY"></path><linearGradient id="gradientb2dFXu2El" gradientUnits="userSpaceOnUse" x1="1641.2" y1="285.63" x2="1641.2" y2="1001.15"><stop style="stop-color: #000000;stop-opacity: 0.05" offset="0%"></stop><stop style="stop-color: #010000;stop-opacity: 1" offset="100%"></stop></linearGradient><path d="M1978.5 467.84L2035.93 384.6L1921.06 384.6L1806.2 384.6L1863.62 467.84L1921.06 551.09L1978.5 467.84Z" id="ch40B10R"></path><linearGradient id="gradientc3bpkivfk2" gradientUnits="userSpaceOnUse" x1="1921.07" y1="287.48" x2="1921.07" y2="1002.99"><stop style="stop-color: #000000;stop-opacity: 0.05" offset="0%"></stop><stop style="stop-color: #010000;stop-opacity: 1" offset="100%"></stop></linearGradient><path d="M1692.44 270L1749.87 353.25L1635 353.25L1520.13 353.25L1577.56 270L1635 186.75L1692.44 270Z" id="a1c930L30v"></path><linearGradient id="gradientcEjm4X1om" gradientUnits="userSpaceOnUse" x1="1635" y1="450.37" x2="1635" y2="-265.15"><stop style="stop-color: #000000;stop-opacity: 0.05" offset="0%"></stop><stop style="stop-color: #010000;stop-opacity: 1" offset="100%"></stop></linearGradient><path d="M1977.44 273.75L2034.87 357L1920 357L1805.13 357L1862.56 273.75L1920 190.51L1977.44 273.75Z" id="b5lJctSUOS"></path><linearGradient id="gradientd6c8MYh1mI" gradientUnits="userSpaceOnUse" x1="1920" y1="454.12" x2="1920" y2="-261.4"><stop style="stop-color: #000000;stop-opacity: 0.05" offset="0%"></stop><stop style="stop-color: #010000;stop-opacity: 1" offset="100%"></stop></linearGradient><path d="M1837.31 271.13L1894.74 187.88L1779.87 187.88L1665 187.88L1722.43 271.13L1779.87 354.38L1837.31 271.13Z" id="b3jxD4tveI"></path><linearGradient id="gradiente1foTM7TZi" gradientUnits="userSpaceOnUse" x1="1779.87" y1="90.76" x2="1779.87" y2="806.28"><stop style="stop-color: #000000;stop-opacity: 0.05" offset="0%"></stop><stop style="stop-color: #010000;stop-opacity: 1" offset="100%"></stop></linearGradient><path d="M1694.91 85.5L1752.35 2.26L1637.47 2.26L1522.61 2.26L1580.04 85.5L1637.47 168.75L1694.91 85.5Z" id="e1S1fTN2oX"></path><linearGradient id="gradientc4d0gydQb7" gradientUnits="userSpaceOnUse" x1="1637.48" y1="-94.86" x2="1637.48" y2="620.66"><stop style="stop-color: #000000;stop-opacity: 0.05" offset="0%"></stop><stop style="stop-color: #010000;stop-opacity: 1" offset="100%"></stop></linearGradient><path d="M1837.31 85.5L1894.74 168.75L1779.87 168.75L1665 168.75L1722.43 85.5L1779.87 2.26L1837.31 85.5Z" id="drESWgE6m"></path><linearGradient id="gradienta5OPcByeJB" gradientUnits="userSpaceOnUse" x1="1779.87" y1="265.87" x2="1779.87" y2="-449.65"><stop style="stop-color: #000000;stop-opacity: 0.05" offset="0%"></stop><stop style="stop-color: #010000;stop-opacity: 1" offset="100%"></stop></linearGradient><path d="M1977.44 83.25L2034.87 0L1920 0L1805.13 0L1862.56 83.25L1920 166.49L1977.44 83.25Z" id="b8XUsmiEI5"></path><linearGradient id="gradientb6iOdAvyFR" gradientUnits="userSpaceOnUse" x1="1920" y1="-97.12" x2="1920" y2="618.4"><stop style="stop-color: #000000;stop-opacity: 0.05" offset="0%"></stop><stop style="stop-color: #010000;stop-opacity: 1" offset="100%"></stop></linearGradient></defs><g><g><g><use xlink:href="#a5lYraFafk" opacity="1" fill="url(#gradientceUcyueW2)"></use></g><g><use xlink:href="#b26EOqbNE" opacity="1" fill="url(#gradientagXU2YOJc)"></use></g><g><use xlink:href="#a4bCfVLSY" opacity="1" fill="url(#gradientb2dFXu2El)"></use></g><g><use xlink:href="#ch40B10R" opacity="1" fill="url(#gradientc3bpkivfk2)"></use></g><g><use xlink:href="#a1c930L30v" opacity="1" fill="url(#gradientcEjm4X1om)"></use></g><g><use xlink:href="#b5lJctSUOS" opacity="1" fill="url(#gradientd6c8MYh1mI)"></use></g><g><use xlink:href="#b3jxD4tveI" opacity="1" fill="url(#gradiente1foTM7TZi)"></use></g><g><use xlink:href="#e1S1fTN2oX" opacity="1" fill="url(#gradientc4d0gydQb7)"></use></g><g><use xlink:href="#drESWgE6m" opacity="1" fill="url(#gradienta5OPcByeJB)"></use></g><g><use xlink:href="#b8XUsmiEI5" opacity="1" fill="url(#gradientb6iOdAvyFR)"></use></g></g></g></svg>